HIERARCHY
ROOT ui
{
	 OFFSET 0 0 0
	 CHANNELS 3 XPosition YPosition Z Position
	 EndSite
	 {
	 OFFSET 0 -1 0
	 }
}
ROOT li
{
	 OFFSET 0 0 0
	 CHANNELS 3 XPosition YPosition Z Position
	 EndSite
	 {
	 OFFSET 0 -1 0
	 }
}
ROOT ul
{
	 OFFSET 0 0 0
	 CHANNELS 3 XPosition YPosition Z Position
	 EndSite
	 {
	 OFFSET 0 -1 0
	 }
}
ROOT ll
{
	 OFFSET 0 0 0
	 CHANNELS 3 XPosition YPosition Z Position
	 EndSite
	 {
	 OFFSET 0 -1 0
	 }
}
ROOT tt
{
	 OFFSET 0 0 0
	 CHANNELS 3 XPosition YPosition Z Position
	 EndSite
	 {
	 OFFSET 0 -1 0
	 }
}
ROOT tb
{
	 OFFSET 0 0 0
	 CHANNELS 3 XPosition YPosition Z Position
	 EndSite
	 {
	 OFFSET 0 -1 0
	 }
}
ROOT td
{
	 OFFSET 0 0 0
	 CHANNELS 3 XPosition YPosition Z Position
	 EndSite
	 {
	 OFFSET 0 -1 0
	 }
}
ROOT v
{
	 OFFSET 0 0 0
	 CHANNELS 3 XPosition YPosition Z Position
	 EndSite
	 {
	 OFFSET 0 -1 0
	 }
}
ROOT bn
{
	 OFFSET 0 0 0
	 CHANNELS 3 XPosition YPosition Z Position
	 EndSite
	 {
	 OFFSET 0 -1 0
	 }
}
MOTION
Frames: 10
Frame Time: 0.002
0.011341083526611328	-0.005701176166534424	0		0.4738520202636719	-2.529505615234375	0		-0.8504708862304687	0.3140270690917969	0		-0.5559150390625	-2.6991044921875	0		1.7103621826171875	-0.40789682006835937	0		3.227294677734375	-0.42223196411132813	0		4.57638671875	-0.5188746337890625	0		5.80520947265625	0.2487426300048828	0		-0.21476974487304687	5.91988720703125	0		
0.0014624680280685425	0.003413480997085571	0		0.5089515380859375	-2.51785595703125	0		-0.87041357421875	0.3162604064941406	0		-0.6028247680664063	-2.68760400390625	0		1.6734263916015626	-0.40354205322265624	0		3.19515576171875	-0.4379568176269531	0		4.573345703125	-0.52492041015625	0		5.79134619140625	0.25878311157226563	0		-0.21175460815429686	5.9068759765625	0		
-0.0015285170078277587	-5.471699833869934E-4	0		0.48197097778320314	-2.515583740234375	0		-0.8754081420898437	0.3113380126953125	0		-0.5777709350585938	-2.6818369140625	0		1.6843450927734376	-0.4156786804199219	0		3.190267578125	-0.4309632568359375	0		4.58740380859375	-0.523147705078125	0		5.78731982421875	0.2507140502929687	0		-0.2125738525390625	5.90789892578125	0		
-0.0014613749980926514	-5.428169965744019E-4	0		0.5089629821777344	-2.5178642578125	0		-0.8753344116210937	0.3113609008789063	0		-0.6117081298828125	-2.676474853515625	0		1.6444156494140625	-0.4143033752441406	0		3.177285400390625	-0.43489425659179687	0		4.5494111328125	-0.5278540649414063	0		5.78739208984375	0.2505954742431641	0		-0.21238124084472657	5.90790771484375	0		
-0.0013782689571380615	-5.419750213623047E-4	0		0.45908526611328127	-2.508365478515625	0		-0.8752444458007812	0.3113808898925781	0		-0.5716754760742188	-2.675868408203125	0		1.6644886474609375	-0.41454241943359377	0		3.200551513671875	-0.4161984558105469	0		4.55845166015625	-0.5310444946289062	0		5.80055126953125	0.257336669921875	0		-0.23012701416015624	5.9120966796875	0		
0.0017599669694900514	0.003425407886505127	0		0.4901555480957031	-2.5056943359375	0		-0.8610078735351563	0.32425506591796877	0		-0.6015444946289062	-2.66655126953125	0		1.64268017578125	-0.40435736083984375	0		3.17566162109375	-0.4140168151855469	0		4.5566904296875	-0.5161289672851562	0		5.7957470703125	0.26625527954101563	0		-0.1968269958496094	5.9187626953125	0		
-0.0011701539754867553	-5.473139882087708E-4	0		0.4792710571289063	-2.4995966796875	0		-0.8699713134765625	0.31636361694335935	0		-0.5315802612304688	-2.67525732421875	0		1.6587294921875	-0.40956195068359375	0		3.216811767578125	-0.4095127868652344	0		4.5647275390625	-0.5223179931640625	0		5.80078125	0.25806884765625	0		-0.19658154296875	5.91876318359375	0		
-0.0010478750467300415	-5.521439909934998E-4	0		0.4694186096191406	-2.491510498046875	0		-0.874892822265625	0.3114302978515625	0		-0.6034539794921875	-2.66851171875	0		1.6358128662109375	-0.41236871337890624	0		3.198966552734375	-0.405406982421875	0		4.564837890625	-0.5224275512695312	0		5.8099091796875	0.25783856201171873	0		-0.17738601684570313	5.912568359375	0		
-9.151440262794494E-4	-5.577830076217652E-4	0		0.46949392700195314	-2.49152685546875	0		-0.8747528686523437	0.3114447937011719	0		-0.5694359130859376	-2.673852783203125	0		1.6298541259765624	-0.4203499450683594	0		3.188244873046875	-0.39037399291992186	0		4.559041015625	-0.5144771118164062	0		5.80513037109375	0.26575006103515625	0		-0.21116668701171876	5.9079169921875	0		
-7.729949951171875E-4	-5.637069940567016E-4	0		0.4535379333496094	-2.495378662109375	0		-0.86955224609375	0.3164073486328125	0		-0.6012819213867188	-2.66651611328125	0		1.645047607421875	-0.4145486145019531	0		3.194387939453125	-0.38951580810546876	0		4.55715087890625	-0.5165680541992187	0		5.80527880859375	0.26560943603515624	0		-0.2127430877685547	5.921935546875	0		
